<svg width="27" height="26" viewBox="0 0 27 26" fill="none" xmlns="http://www.w3.org/2000/svg">
<path d="M26.4127 24.3492V10.3175C26.4127 10.0612 26.353 9.80843 26.2384 9.5792C26.1238 9.34998 25.9574 9.15059 25.7524 8.99683L14.1968 0.330158C13.9111 0.115849 13.5635 0 13.2063 0C12.8492 0 12.5016 0.115849 12.2159 0.330158L0.660318 8.99683C0.455296 9.15059 0.28889 9.34998 0.174279 9.5792C0.0596679 9.80843 0 10.0612 0 10.3175V24.3492C0 24.787 0.173923 25.2069 0.483507 25.5165C0.79309 25.8261 1.21298 26 1.65079 26H8.25397C8.69179 26 9.11167 25.8261 9.42126 25.5165C9.73084 25.2069 9.90476 24.787 9.90476 24.3492V19.3968C9.90476 18.959 10.0787 18.5391 10.3883 18.2295C10.6979 17.92 11.1177 17.746 11.5556 17.746H14.8571C15.295 17.746 15.7148 17.92 16.0244 18.2295C16.334 18.5391 16.5079 18.959 16.5079 19.3968V24.3492C16.5079 24.787 16.6819 25.2069 16.9914 25.5165C17.301 25.8261 17.7209 26 18.1587 26H24.7619C25.1997 26 25.6196 25.8261 25.9292 25.5165C26.2388 25.2069 26.4127 24.787 26.4127 24.3492Z" fill="#8127E0"/>
</svg>
