<svg width="29" height="26" viewBox="0 0 29 26" fill="none" xmlns="http://www.w3.org/2000/svg">
<path fill-rule="evenodd" clip-rule="evenodd" d="M10.9951 4.45467C10.3422 5.36033 10.1111 6.49133 10.1111 7.22222V8.66667H18.7778V7.22222C18.7778 6.48989 18.5467 5.36033 17.8952 4.45467C17.2958 3.62267 16.2847 2.88889 14.4444 2.88889C12.6042 2.88889 11.5931 3.62267 10.9951 4.45467ZM21.6667 8.66667V7.22222C21.6667 6.02767 21.32 4.26978 20.2396 2.76756C19.1042 1.19167 17.2264 0 14.4444 0C11.6624 0 9.78467 1.19167 8.64933 2.76756C7.56889 4.26978 7.22222 6.02767 7.22222 7.22222V8.66667H1.44444C1.06135 8.66667 0.693954 8.81885 0.423068 9.08974C0.152182 9.36062 0 9.72802 0 10.1111C0 10.4942 0.152182 10.8616 0.423068 11.1325C0.693954 11.4034 1.06135 11.5556 1.44444 11.5556H1.58167L2.89611 24.7C2.93192 25.0563 3.09879 25.3866 3.36436 25.6268C3.62992 25.867 3.97525 26 4.33333 26H24.5556C24.9136 26 25.259 25.867 25.5245 25.6268C25.7901 25.3866 25.957 25.0563 25.9928 24.7L27.3072 11.5556H27.4444C27.8275 11.5556 28.1949 11.4034 28.4658 11.1325C28.7367 10.8616 28.8889 10.4942 28.8889 10.1111C28.8889 9.72802 28.7367 9.36062 28.4658 9.08974C28.1949 8.81885 27.8275 8.66667 27.4444 8.66667H21.6667ZM10.1111 15.8889C10.1111 15.5058 9.95893 15.1384 9.68804 14.8675C9.41716 14.5966 9.04976 14.4444 8.66667 14.4444C8.28358 14.4444 7.91618 14.5966 7.64529 14.8675C7.3744 15.1384 7.22222 15.5058 7.22222 15.8889V18.7778C7.22222 19.1609 7.3744 19.5283 7.64529 19.7992C7.91618 20.07 8.28358 20.2222 8.66667 20.2222C9.04976 20.2222 9.41716 20.07 9.68804 19.7992C9.95893 19.5283 10.1111 19.1609 10.1111 18.7778V15.8889ZM15.8889 15.8889C15.8889 15.5058 15.7367 15.1384 15.4658 14.8675C15.1949 14.5966 14.8275 14.4444 14.4444 14.4444C14.0614 14.4444 13.694 14.5966 13.4231 14.8675C13.1522 15.1384 13 15.5058 13 15.8889V18.7778C13 19.1609 13.1522 19.5283 13.4231 19.7992C13.694 20.07 14.0614 20.2222 14.4444 20.2222C14.8275 20.2222 15.1949 20.07 15.4658 19.7992C15.7367 19.5283 15.8889 19.1609 15.8889 18.7778V15.8889ZM21.6667 15.8889C21.6667 15.5058 21.5145 15.1384 21.2436 14.8675C20.9727 14.5966 20.6053 14.4444 20.2222 14.4444C19.8391 14.4444 19.4717 14.5966 19.2008 14.8675C18.93 15.1384 18.7778 15.5058 18.7778 15.8889V18.7778C18.7778 19.1609 18.93 19.5283 19.2008 19.7992C19.4717 20.07 19.8391 20.2222 20.2222 20.2222C20.6053 20.2222 20.9727 20.07 21.2436 19.7992C21.5145 19.5283 21.6667 19.1609 21.6667 18.7778V15.8889Z" fill="#6E6E71"/>
</svg>
