<svg width="24" height="25" viewBox="0 0 24 25" fill="none" xmlns="http://www.w3.org/2000/svg">
<path d="M11.7649 25C18.2624 25 23.5297 19.7327 23.5297 13.2351C23.5297 6.73757 18.2624 1.47025 11.7649 1.47025C5.26731 1.47025 0 6.73757 0 13.2351C0 19.7327 5.26731 25 11.7649 25Z" fill="#F4900C"/>
<path d="M11.7649 23.5297C18.2624 23.5297 23.5297 18.2624 23.5297 11.7649C23.5297 5.26731 18.2624 0 11.7649 0C5.26731 0 0 5.26731 0 11.7649C0 18.2624 5.26731 23.5297 11.7649 23.5297Z" fill="#FFCC4D"/>
<path d="M11.7649 22.0591C17.0441 22.0591 21.3238 17.7794 21.3238 12.5001C21.3238 7.22083 17.0441 2.94114 11.7649 2.94114C6.4856 2.94114 2.20591 7.22083 2.20591 12.5001C2.20591 17.7794 6.4856 22.0591 11.7649 22.0591Z" fill="#FFE8B6"/>
<path d="M11.7649 21.6918C17.0441 21.6918 21.3238 17.3298 21.3238 11.949C21.3238 6.56821 17.0441 2.20622 11.7649 2.20622C6.4856 2.20622 2.20591 6.56821 2.20591 11.949C2.20591 17.3298 6.4856 21.6918 11.7649 21.6918Z" fill="#FFAC33"/>
<path d="M12.5082 5.91404V6.45473H11.9675V9.69887H11.4268V10.2396H10.3455V10.7802H9.80477V11.3209H9.26408V11.8616H8.1827V11.3209H7.64201V10.7802H7.10132V9.69887H6.56063V12.943H7.10132V13.4837H7.64201V14.0244H8.1827V14.5651H8.72339V16.7278H9.80477V16.1871H9.26408V15.6464H9.80477V15.1058H10.3455V14.5651H10.8861V15.1058H11.4268V16.7278H12.5082V16.1871H11.9675V14.0244H12.5082V13.4837H13.0489V12.943H13.5896V11.3209H14.1303V11.8616H14.671V10.7802H13.5896V9.69887H16.293V9.15818H14.671V8.61749H17.3744V6.45473H16.8337V5.91404M13.0489 6.45473H13.5896V6.99542H13.0489V6.45473Z" fill="#FFE8B6"/>
</svg>
